# xmcd
#
# Track frame offsets: 
#        150
#        8909
#        17912
#        31803
#        41321
#        57663
#        71258
#        82242
#        96363
#        106540
#        122224
#        130264
#
# Disc length: 1922 seconds
#
# Revision: 0
# Processed by: cddbd v1.5.1PL0 Copyright (c) Steve Scherf et al.
# Submitted via: ExactAudioCopy v0.95a3
#
DISCID=9907800c
DTITLE=Jim Loessberg - Sawed-Off Shotgun
DYEAR=2005
DGENRE=
TTITLE0=Sawed-Off Shotgun
TTITLE1=Faded Love
TTITLE2=Midnight Silence
TTITLE3=Jonesy
TTITLE4=Sing a Sad Song
TTITLE5=Hold It
TTITLE6=The Marionette
TTITLE7=Love Is Blue
TTITLE8=Steel Guitar Rag
TTITLE9=Sleepwalk
TTITLE10=Pickin' Pot Pie
TTITLE11=Brown Derby
EXTD=
EXTT0=
EXTT1=
EXTT2=
EXTT3=
EXTT4=
EXTT5=
EXTT6=
EXTT7=
EXTT8=
EXTT9=
EXTT10=
EXTT11=
PLAYORDER=
